<svg xmlns="http://www.w3.org/2000/svg" viewBox="0 0 1574.28 351.54" fill="currentColor" role="img" aria-label="dayalogue">
  <path fill-rule="nonzero" d="M131.04 124.02Q131.04 108.36 121.77 99Q112.5 89.64 97.56 89.64Q84.06 89.64 74.43 97.92Q64.8 106.2 59.67 123.57Q54.54 140.94 54.54 168.66Q54.54 194.76 59.58 210.96Q64.62 227.16 74.79 234.54Q84.96 241.92 100.62 241.92Q112.32 241.92 122.22 238.05Q132.12 234.18 140.58 225L142.2 229.68Q131.58 242.64 122.85 250.92Q114.12 259.2 106.47 263.88Q98.82 268.56 91.44 270.36Q84.06 272.16 76.5 272.16Q52.92 272.16 35.82 261.18Q18.72 250.2 9.36 230.49Q0 210.78 0 184.68Q0 159.3 7.65 139.68Q15.3 120.06 29.25 106.56Q43.2 93.06 62.19 86.13Q81.18 79.2 103.68 79.2Q114.84 79.2 125.91 80.64Q136.98 82.08 147.6 85.23Q158.22 88.38 167.76 93.42L131.04 96.48V42.3Q128.88 40.86 123.84 37.35Q118.8 33.84 112.86 29.7Q106.92 25.56 101.7 21.96V17.64L182.52 0H184.86L183.42 32.58V243.36Q185.04 244.26 188.37 245.97Q191.7 247.68 195.75 249.66Q199.8 251.64 203.76 253.62Q207.72 255.6 210.6 257.22V261.72L135.9 273.78H133.2L131.04 244.44ZM329.76 149.94 330.12 158.58Q311.22 165.06 299.43 171Q287.64 176.94 281.43 183.15Q275.22 189.36 272.88 196.47Q270.54 203.58 270.54 212.22Q270.54 227.16 277.47 234.18Q284.4 241.2 295.02 241.2Q302.58 241.2 308.25 238.14Q313.92 235.08 317.07 228.87Q320.22 222.66 320.22 213.12V128.52Q320.22 112.68 311.94 104.04Q303.66 95.4 286.92 95.4Q278.46 95.4 270.99 96.39Q263.52 97.38 258.84 99.18L266.94 89.64Q265.86 100.08 264.6 107.82Q263.34 115.56 261.63 120.87Q259.92 126.18 257.76 129.06Q254.88 132.66 249.48 134.91Q244.08 137.16 237.6 137.16Q229.32 137.16 225 134.19Q220.68 131.22 220.68 125.64Q220.68 117.72 228.6 109.62Q236.52 101.52 249.48 94.59Q262.44 87.66 278.19 83.43Q293.94 79.2 309.78 79.2Q332.64 79.2 346.41 85.77Q360.18 92.34 366.39 104.49Q372.6 116.64 372.6 133.02V233.28Q372.6 238.32 374.22 241.47Q375.84 244.62 378.81 246.06Q381.78 247.5 385.74 247.5Q390.78 247.5 395.73 246.06Q400.68 244.62 405.9 241.38V248.94Q392.22 262.98 380.7 267.57Q369.18 272.16 355.32 272.16Q342.54 272.16 334.98 267.12Q327.42 262.08 324 251.91Q320.58 241.74 320.04 226.26L321.84 227.34Q318.42 241.74 311.4 251.64Q304.38 261.54 294.48 266.76Q284.58 271.98 272.52 271.98Q247.68 271.98 233.37 259.47Q219.06 246.96 219.06 224.64Q219.06 213.3 223.02 204.3Q226.98 195.3 238.32 187.2Q249.66 179.1 271.71 170.19Q293.76 161.28 329.76 149.94ZM522 222.12 495.9 280.62 401.22 96.48 380.7 89.28V83.52H482.76V89.46L459.72 95.4ZM436.14 350.82Q423.36 350.82 415.17 344.07Q406.98 337.32 406.98 324.54Q406.98 318.78 408.96 314.73Q410.94 310.68 413.82 308.43Q416.7 306.18 419.4 306.18Q421.02 306.18 425.07 308.25Q429.12 310.32 435.15 312.3Q441.18 314.28 448.92 314.28Q458.46 314.28 465.39 312.21Q472.32 310.14 477.54 304.74Q482.76 299.34 487.26 289.44L498.24 264.96L513.18 229.68L560.34 94.5L536.94 89.46V83.52H595.8V89.46L575.1 94.5L501.3 285.66Q491.58 310.5 481.68 324.63Q471.78 338.76 460.71 344.79Q449.64 350.82 436.14 350.82ZM718.92 148.5 719.64 154.08Q688.5 163.8 670.05 171.99Q651.6 180.18 642.33 187.92Q633.06 195.66 630.09 203.58Q627.12 211.5 627.12 220.86Q627.12 237.6 637.2 247.32Q647.28 257.04 663.48 257.04Q676.44 257.04 687.06 251.82Q697.68 246.6 704.07 236.79Q710.46 226.98 710.46 213.66V133.92Q710.46 113.04 700.74 101.61Q691.02 90.18 668.88 90.18Q658.08 90.18 647.28 92.43Q636.48 94.68 625.86 99.36L636.84 92.7Q636.12 99.18 634.95 105.03Q633.78 110.88 632.43 115.2Q631.08 119.52 629.46 121.5Q627.48 123.84 623.7 125.19Q619.92 126.54 616.14 126.54Q610.92 126.54 608.13 124.47Q605.34 122.4 605.34 118.26Q605.34 111.6 612.63 104.85Q619.92 98.1 631.26 92.52Q642.6 86.94 655.02 83.61Q667.44 80.28 677.88 80.28Q698.4 80.28 710.1 86.58Q721.8 92.88 726.66 104.4Q731.52 115.92 731.52 131.4V237.24Q731.52 244.98 733.86 249.3Q736.2 253.62 740.16 255.42Q744.12 257.22 748.8 257.22Q754.92 257.22 759.87 255.69Q764.82 254.16 771.84 250.02V253.26Q762.48 263.16 754.47 267.21Q746.46 271.26 737.1 271.26Q727.2 271.26 720.99 267.03Q714.78 262.8 712.26 252.54Q709.74 242.28 710.28 224.46L711.36 223.92Q708.12 239.22 700.2 249.84Q692.28 260.46 681.03 265.95Q669.78 271.44 656.82 271.44Q633.24 271.44 619.11 259.29Q604.98 247.14 604.98 224.28Q604.98 212.94 608.76 204.03Q612.54 195.12 624.06 186.93Q635.58 178.74 658.26 169.56Q680.94 160.38 718.92 148.5ZM816.84 260.82 842.76 264.96V267.84H769.32V264.96L795.78 260.82V24.12Q793.44 23.4 788.31 21.87Q783.18 20.34 776.52 18.36Q769.86 16.38 762.84 14.22V11.34L815.58 0.72H816.84V24.48ZM944.28 265.86Q963.9 265.86 978.3 254.7Q992.7 243.54 1000.62 223.11Q1008.54 202.68 1008.54 174.78Q1008.54 147.24 1000.71 127.26Q992.88 107.28 978.48 96.39Q964.08 85.5 944.64 85.5Q924.84 85.5 910.44 96.66Q896.04 107.82 888.21 128.25Q880.38 148.68 880.38 176.58Q880.38 204.12 888.21 224.1Q896.04 244.08 910.44 254.97Q924.84 265.86 944.28 265.86ZM943.92 271.44Q920.34 271.44 900.63 259.74Q880.92 248.04 869.04 226.71Q857.16 205.38 857.16 176.58Q857.16 147.24 868.86 125.46Q880.56 103.68 900.45 91.8Q920.34 79.92 945 79.92Q968.76 79.92 988.38 91.62Q1008 103.32 1019.88 124.56Q1031.76 145.8 1031.76 174.78Q1031.76 204.12 1019.97 225.9Q1008.18 247.68 988.29 259.56Q968.4 271.44 943.92 271.44ZM1117.44 351.54Q1098.9 351.54 1084.77 348.57Q1070.64 345.6 1061.19 340.2Q1051.74 334.8 1046.88 327.33Q1042.02 319.86 1042.02 310.86Q1042.02 302.58 1046.25 295.2Q1050.48 287.82 1058.85 281.7Q1067.22 275.58 1080.09 270.72Q1092.96 265.86 1110.24 262.26L1124.28 259.92L1119.42 264.6Q1097.82 268.2 1084.77 274.23Q1071.72 280.26 1065.87 288.54Q1060.02 296.82 1060.02 307.08Q1060.02 319.14 1066.95 327.78Q1073.88 336.42 1087.29 341.1Q1100.7 345.78 1120.14 345.78Q1144.08 345.78 1161.27 340.38Q1178.46 334.98 1187.64 325.26Q1196.82 315.54 1196.82 302.76Q1196.82 295.56 1193.22 289.98Q1189.62 284.4 1181.43 280.26Q1173.24 276.12 1159.56 273.15Q1145.88 270.18 1125.72 268.38Q1107 266.4 1094.85 263.07Q1082.7 259.74 1075.95 255.06Q1069.2 250.38 1066.41 244.62Q1063.62 238.86 1063.62 232.02Q1063.62 219.6 1074.33 211.05Q1085.04 202.5 1105.74 197.28L1107.72 200.34Q1092.24 202.86 1086.39 208.89Q1080.54 214.92 1080.54 221.94Q1080.54 227.16 1082.7 231.3Q1084.86 235.44 1091.07 238.59Q1097.28 241.74 1108.98 244.17Q1120.68 246.6 1139.58 248.76Q1160.28 250.74 1174.41 254.7Q1188.54 258.66 1197.18 264.33Q1205.82 270 1209.78 277.38Q1213.74 284.76 1213.74 294.12Q1213.74 310.32 1202.31 323.37Q1190.88 336.42 1169.37 343.98Q1147.86 351.54 1117.44 351.54ZM1121.04 202.32Q1102.68 202.32 1087.74 194.76Q1072.8 187.2 1064.07 173.79Q1055.34 160.38 1055.34 142.74Q1055.34 124.38 1063.8 110.16Q1072.26 95.94 1086.84 87.93Q1101.42 79.92 1119.6 79.92Q1133.64 79.92 1145.7 84.24Q1157.76 88.56 1166.67 96.57Q1175.58 104.58 1180.62 115.47Q1185.66 126.36 1185.66 139.68Q1185.66 157.86 1177.29 172.08Q1168.92 186.3 1154.34 194.31Q1139.76 202.32 1121.04 202.32ZM1123.92 197.82Q1141.74 197.1 1153.26 181.89Q1164.78 166.68 1163.88 139.68Q1162.8 113.76 1150.02 98.82Q1137.24 83.88 1116.72 84.42Q1099.26 84.96 1087.74 100.17Q1076.22 115.38 1077.12 142.56Q1078.02 168.12 1090.89 183.24Q1103.76 198.36 1123.92 197.82ZM1137.42 85.14 1131.48 80.82Q1151.82 82.62 1165.05 82.44Q1178.28 82.26 1186.38 80.91Q1194.48 79.56 1199.34 78.39Q1204.2 77.22 1207.8 77.22Q1210.5 77.22 1211.85 78.84Q1213.2 80.46 1213.2 83.88Q1213.2 91.62 1208.97 96.03Q1204.74 100.44 1198.8 100.44Q1194.84 100.44 1191.24 98.46Q1187.64 96.48 1181.7 93.78Q1175.76 91.08 1165.32 88.56Q1154.88 86.04 1137.42 85.14ZM1265.04 209.34Q1265.04 226.62 1269.27 236.7Q1273.5 246.78 1282.59 251.1Q1291.68 255.42 1306.62 255.42Q1322.28 255.42 1337.76 250.65Q1353.24 245.88 1364.04 238.86L1365.12 242.28Q1351.98 251.28 1342.08 257.04Q1332.18 262.8 1324.08 265.86Q1315.98 268.92 1308.78 270.18Q1301.58 271.44 1293.84 271.44Q1267.02 271.44 1255.5 258.03Q1243.98 244.62 1243.98 213.84V95.04L1208.88 88.56V84.24L1266.66 80.64L1265.04 94.32ZM1359.18 273.06V242.64V95.04L1324.08 88.56V84.24L1382.04 80.64L1380.24 94.32V254.7Q1381.86 255.06 1386 255.87Q1390.14 256.68 1395.27 257.76Q1400.4 258.84 1405.17 259.83Q1409.94 260.82 1412.82 261.54V264.24L1360.44 273.06ZM1505.7 79.92Q1524.96 79.92 1538.73 88.11Q1552.5 96.3 1560.15 110.97Q1567.8 125.64 1568.88 145.26H1440.36V138.6H1554.3L1547.1 143.1Q1545.3 124.2 1539.54 111.78Q1533.78 99.36 1524.33 93.15Q1514.88 86.94 1501.56 86.94Q1481.22 86.94 1468.08 96.39Q1454.94 105.84 1448.64 123.12Q1442.34 140.4 1442.34 164.16Q1442.34 194.58 1450.53 214.56Q1458.72 234.54 1474.29 244.35Q1489.86 254.16 1512 254.16Q1523.7 254.16 1533.6 251.37Q1543.5 248.58 1552.95 242.01Q1562.4 235.44 1571.94 224.46L1574.28 226.26Q1562.04 243.18 1551.06 253.08Q1540.08 262.98 1528.47 267.21Q1516.86 271.44 1503 271.44Q1478.88 271.44 1460.43 261Q1441.98 250.56 1431.72 229.77Q1421.46 208.98 1421.46 177.84Q1421.46 151.38 1431.36 129.15Q1441.26 106.92 1460.16 93.42Q1479.06 79.92 1505.7 79.92Z"/>
</svg>
